name C:/MyDriveSym/Projects/mobilecap/Data\Session20210903_0002\mocap\ForceDataProcessed\walking2_forces.mot
datacolumns 19
datarows 29
range 0.00000000 0.01400000
endheader 
time	R_ground_force_vx	R_ground_force_vy	R_ground_force_vz	R_ground_force_px	R_ground_force_py	R_ground_force_pz	R_ground_torque_x	R_ground_torque_y	R_ground_torque_z	L_ground_force_vx	L_ground_force_vy	L_ground_force_vz	L_ground_force_px	L_ground_force_py	L_ground_force_pz	L_ground_torque_x	L_ground_torque_y	L_ground_torque_z	
          0.00000000	        -56.87917300	        322.38050500	         -0.53401200	          0.09881500	          0.00600000	         -0.12370200	          0.00000000	          0.37464400	          0.00000000	          0.00000000	          0.00000000	          0.00000000	          0.69231100	          0.00000000	         -0.18832700	          0.00000000	          0.00000000	          0.00000000	
          0.00050000	        -57.47130000	        323.94299500	         -0.55164300	          0.09881500	          0.00600000	         -0.12370200	          0.00000000	          0.37298300	          0.00000000	          0.00000000	          0.00000000	          0.00000000	          0.69231100	          0.00000000	         -0.18832700	          0.00000000	          0.00000000	          0.00000000	
          0.00100000	        -58.06542600	        325.51446800	         -0.56996400	          0.09881500	          0.00600000	         -0.12370200	          0.00000000	          0.37132400	          0.00000000	          0.00000000	          0.00000000	          0.00000000	          0.69231100	          0.00000000	         -0.18832700	          0.00000000	          0.00000000	          0.00000000	
          0.00150000	        -58.66149100	        327.09483600	         -0.58898500	          0.09881500	          0.00600000	         -0.12370200	          0.00000000	          0.36966700	          0.00000000	          0.00000000	          0.00000000	          0.00000000	          0.69231100	          0.00000000	         -0.18832700	          0.00000000	          0.00000000	          0.00000000	
          0.00200000	        -59.25944000	        328.68400700	         -0.60871400	          0.09908200	          0.00600000	         -0.12371400	          0.00000000	          0.36801300	          0.00000000	          0.00000000	          0.00000000	          0.00000000	          0.69231100	          0.00000000	         -0.18832700	          0.00000000	          0.00000000	          0.00000000	
          0.00250000	        -59.85921100	        330.28188900	         -0.62916000	          0.09934800	          0.00600000	         -0.12372600	          0.00000000	          0.36636200	          0.00000000	          0.00000000	          0.00000000	          0.00000000	          0.69231100	          0.00000000	         -0.18832700	          0.00000000	          0.00000000	          0.00000000	
          0.00300000	        -60.46074400	        331.88838500	         -0.65033300	          0.09961500	          0.00600000	         -0.12373700	          0.00000000	          0.36471500	          0.00000000	          0.00000000	          0.00000000	          0.00000000	          0.69231100	          0.00000000	         -0.18832700	          0.00000000	          0.00000000	          0.00000000	
          0.00350000	        -61.06398000	        333.50339500	         -0.67224300	          0.09988200	          0.00600000	         -0.12374800	          0.00000000	          0.36307200	          0.00000000	          0.00000000	          0.00000000	          0.00000000	          0.69231100	          0.00000000	         -0.18832700	          0.00000000	          0.00000000	          0.00000000	
          0.00400000	        -61.66885600	        335.12682000	         -0.69489800	          0.10014800	          0.00600000	         -0.12375900	          0.00000000	          0.36143400	          0.00000000	          0.00000000	          0.00000000	          0.00000000	          0.69231100	          0.00000000	         -0.18832700	          0.00000000	          0.00000000	          0.00000000	
          0.00450000	        -62.27531100	        336.75855400	         -0.71830800	          0.10041400	          0.00600000	         -0.12377000	          0.00000000	          0.35980000	          0.00000000	          0.00000000	          0.00000000	          0.00000000	          0.69231100	          0.00000000	         -0.18832700	          0.00000000	          0.00000000	          0.00000000	
          0.00500000	        -62.88328000	        338.39849000	         -0.74248100	          0.10068000	          0.00600000	         -0.12378000	          0.00000000	          0.35817200	          0.00000000	          0.00000000	          0.00000000	          0.00000000	          0.69231100	          0.00000000	         -0.18832700	          0.00000000	          0.00000000	          0.00000000	
          0.00550000	        -63.49270000	        340.04652000	         -0.76742700	          0.10094500	          0.00600000	         -0.12379100	          0.00000000	          0.35654900	          0.00000000	          0.00000000	          0.00000000	          0.00000000	          0.69231100	          0.00000000	         -0.18832700	          0.00000000	          0.00000000	          0.00000000	
          0.00600000	        -64.10350600	        341.70253000	         -0.79315500	          0.10121100	          0.00600000	         -0.12380100	          0.00000000	          0.35493200	          0.00000000	          0.00000000	          0.00000000	          0.00000000	          0.69231100	          0.00000000	         -0.18832700	          0.00000000	          0.00000000	          0.00000000	
          0.00650000	        -64.71563400	        343.36640700	         -0.81967400	          0.10147600	          0.00600000	         -0.12381100	          0.00000000	          0.35332200	          0.00000000	          0.00000000	          0.00000000	          0.00000000	          0.69231100	          0.00000000	         -0.18832700	          0.00000000	          0.00000000	          0.00000000	
          0.00700000	        -65.32901800	        345.03803200	         -0.84699300	          0.10174000	          0.00600000	         -0.12382100	          0.00000000	          0.35171700	          0.00000000	          0.00000000	          0.00000000	          0.00000000	          0.69231100	          0.00000000	         -0.18832700	          0.00000000	          0.00000000	          0.00000000	
          0.00750000	        -65.94359000	        346.71728500	         -0.87512100	          0.10200500	          0.00600000	         -0.12383100	          0.00000000	          0.35012000	          0.00000000	          0.00000000	          0.00000000	          0.00000000	          0.69231100	          0.00000000	         -0.18832700	          0.00000000	          0.00000000	          0.00000000	
          0.00800000	        -66.55928500	        348.40404500	         -0.90406700	          0.10226900	          0.00600000	         -0.12384000	          0.00000000	          0.34852900	          0.00000000	          0.00000000	          0.00000000	          0.00000000	          0.69231100	          0.00000000	         -0.18832700	          0.00000000	          0.00000000	          0.00000000	
          0.00850000	        -67.17603400	        350.09818500	         -0.93383900	          0.10253200	          0.00600000	         -0.12385000	          0.00000000	          0.34694600	          0.00000000	          0.00000000	          0.00000000	          0.00000000	          0.69231100	          0.00000000	         -0.18832700	          0.00000000	          0.00000000	          0.00000000	
          0.00900000	        -67.79377000	        351.79957700	         -0.96444600	          0.10279600	          0.00600000	         -0.12385900	          0.00000000	          0.34537000	          0.00000000	          0.00000000	          0.00000000	          0.00000000	          0.69231100	          0.00000000	         -0.18832700	          0.00000000	          0.00000000	          0.00000000	
          0.00950000	        -68.41242500	        353.50809200	         -0.99589700	          0.10305900	          0.00600000	         -0.12386800	          0.00000000	          0.34380200	          0.00000000	          0.00000000	          0.00000000	          0.00000000	          0.69231100	          0.00000000	         -0.18832700	          0.00000000	          0.00000000	          0.00000000	
          0.01000000	        -69.03192800	        355.22359600	         -1.02820100	          0.10332100	          0.00600000	         -0.12387600	          0.00000000	          0.34224200	          0.00000000	          0.00000000	          0.00000000	          0.00000000	          0.69231100	          0.00000000	         -0.18832700	          0.00000000	          0.00000000	          0.00000000	
          0.01050000	        -69.65221100	        356.94595300	         -1.06136500	          0.10358300	          0.00600000	         -0.12388500	          0.00000000	          0.34069000	          0.00000000	          0.00000000	          0.00000000	          0.00000000	          0.69231100	          0.00000000	         -0.18832700	          0.00000000	          0.00000000	          0.00000000	
          0.01100000	        -70.27320300	        358.67502400	         -1.09539900	          0.10384500	          0.00600000	         -0.12389300	          0.00000000	          0.33914600	          0.00000000	          0.00000000	          0.00000000	          0.00000000	          0.69231100	          0.00000000	         -0.18832700	          0.00000000	          0.00000000	          0.00000000	
          0.01150000	        -70.89483500	        360.41067000	         -1.13031100	          0.10410600	          0.00600000	         -0.12390100	          0.00000000	          0.33761100	          0.00000000	          0.00000000	          0.00000000	          0.00000000	          0.69231100	          0.00000000	         -0.18832700	          0.00000000	          0.00000000	          0.00000000	
          0.01200000	        -71.51703600	        362.15274600	         -1.16610800	          0.10436700	          0.00600000	         -0.12390900	          0.00000000	          0.33608400	          0.00000000	          0.00000000	          0.00000000	          0.00000000	          0.69231100	          0.00000000	         -0.18832700	          0.00000000	          0.00000000	          0.00000000	
          0.01250000	        -72.13973400	        363.90110600	         -1.20279900	          0.10462800	          0.00600000	         -0.12391700	          0.00000000	          0.33456500	          0.00000000	          0.00000000	          0.00000000	          0.00000000	          0.69231100	          0.00000000	         -0.18832700	          0.00000000	          0.00000000	          0.00000000	
          0.01300000	        -72.76285900	        365.65560300	         -1.24039200	          0.10488800	          0.00600000	         -0.12392500	          0.00000000	          0.33305500	          0.00000000	          0.00000000	          0.00000000	          0.00000000	          0.69231100	          0.00000000	         -0.18832700	          0.00000000	          0.00000000	          0.00000000	
          0.01350000	        -73.38633800	        367.41608400	         -1.27889500	          0.10514700	          0.00600000	         -0.12393200	          0.00000000	          0.33155400	          0.00000000	          0.00000000	          0.00000000	          0.00000000	          0.69231100	          0.00000000	         -0.18832700	          0.00000000	          0.00000000	          0.00000000	
          0.01400000	        -74.01010100	        369.18239600	         -1.31831600	          0.10540600	          0.00600000	         -0.12393900	          0.00000000	          0.33006100	          0.00000000	          0.00000000	          0.00000000	          0.00000000	          0.69231100	          0.00000000	         -0.18832700	          0.00000000	          0.00000000	          0.00000000	
